<svg xmlns="http://www.w3.org/2000/svg" viewBox="0 0 512 512">
  <path fill="#d8d8da" d="M256 0a256 256 0 1 0 0 512 256 256 0 0 0 0-512zm0 337a81 81 0 1 1 0-162 81 81 0 0 1 0 162z"/>
  <path fill="#d4b6e6" d="M283 189h220c-18-66-61-122-119-155L229 189h54z"/>
  <path fill="#ebafd1" d="M229 189L384 34A255 255 0 0 0 189 9v220l40-40z"/>
  <path fill="#e07188" d="M189 229V9C123 27 67 70 34 128l155 155v-54z"/>
  <path fill="#d8d8da" d="M189 229l40-40h54-54zm40 94l-40-40 40 40h54l40-40-40 40z"/>
  <path fill="#b4d8f1" d="M503 189H283h1l39 40 155 155a255 255 0 0 0 25-195z"/>
  <path fill="#acfff4" d="M323 283v220c66-18 122-61 155-119L323 229v54z"/>
  <path fill="#95d5a7" d="M283 323L128 478a255 255 0 0 0 195 25V283l-40 40z"/>
  <path fill="#f8e99b" d="M229 323H9c18 66 61 122 119 155l155-155h-54z"/>
  <path fill="#efc27b" d="M189 283L34 128A255 255 0 0 0 9 323h220l-40-40z"/>
  <path fill="#d8d8da" d="M284 189h-1l40 40z"/>
  <path fill="#b681d5" d="M503 189c-18-66-61-122-119-155L256 162v27h247z"/>
  <path fill="#e592bf" d="M384 34C346 12 302 0 256 0v162L384 34z"/>
  <path fill="#80cb93" d="M256 350v162c23 0 46-3 67-9V283l-40 40-27 27z"/>
  <path fill="#f6e27d" d="M283 323h-27v27z"/>
</svg>
